<svg xmlns="http://www.w3.org/2000/svg" width="48" height="48" viewBox="0 0 48 48">
    <g fill="none" fill-rule="evenodd">
        <path fill="#00CE7D" d="M24 0c13.255 0 24 10.745 24 24S37.255 48 24 48 0 37.255 0 24 10.745 0 24 0"/>
        <path fill="#5B6A78" d="M42.498 5C43.328 5 44 5.669 44 6.491V31H0V6.491C0 5.668.674 5 1.502 5"/>
        <path fill="#EBEDEB" d="M44 31v4.501A1.5 1.5 0 0 1 42.498 37H1.502C.672 37 0 36.335 0 35.501V31"/>
        <path fill="#E4E5E3" d="M25.545 37h-7.09a4.8 4.8 0 0 1-.115.957C17.794 40.757 15 41 15 41v1h14v-1s-1.864-.03-2.852-1.69c-.355-.597-.603-1.346-.603-2.31z"/>
        <path fill="#D3D3D3" d="M26.604 39.912a3.37 3.37 0 0 1-.456-.603c-.355-.596-.603-1.345-.603-2.309h-7.09a4.8 4.8 0 0 1-.115.957 4.458 4.458 0 0 1-.023.113l8.287 1.842z"/>
        <path fill="#FFF" d="M3 8h38v20H3z"/>
        <path fill="#F2F3F5" d="M26 8h15v20H18z"/>
        <rect width="11" height="19" x="37" y="23" fill="#444E56" rx="2"/>
        <path fill="#FFF" d="M39 25h7v14h-7z"/>
        <path fill="#F2F3F5" d="M44 25h2v14h-5z"/>
    </g>
</svg>
