<svg xmlns="http://www.w3.org/2000/svg" width="48" height="48" viewBox="0 0 48 48">
    <g fill="none" fill-rule="evenodd">
        <path fill="#FFB652" d="M24 0c13.255 0 24 10.745 24 24S37.255 48 24 48 0 37.255 0 24 10.745 0 24 0"/>
        <path fill="#FB7CB3" d="M40.643 41.289c5.513-5.308 7.932-12.615 7.228-19.682L23.85 23.85l16.792 17.438z"/>
        <path fill="#9164CD" d="M20.677 47.763c7.042.98 14.447-1.16 19.966-6.475L23.852 23.85l-3.175 23.913z"/>
        <path fill="#4CA0FF" d="M3.326 36.192a24.06 24.06 0 0 0 3.382 4.454 23.888 23.888 0 0 0 13.969 7.117l3.175-23.913L3.326 36.192z"/>
        <path fill="#FF5C5E" d="M47.87 21.607a23.891 23.891 0 0 0-6.585-14.254 24.091 24.091 0 0 0-4.303-3.534L23.852 23.85l24.019-2.244z"/>
        <path fill="#00CE7D" d="M3.326 36.192L23.852 23.85 1.53 15.548C-.99 22.26-.402 29.884 3.326 36.192"/>
        <path fill="#FF8947" d="M36.982 3.818c-6.16-3.97-13.756-4.853-20.56-2.596l7.43 22.628 13.13-20.032z"/>
        <path fill="#FFB652" d="M16.422 1.222a23.904 23.904 0 0 0-9.073 5.49 23.914 23.914 0 0 0-5.819 8.836l22.322 8.302-7.43-22.628z"/>
        <path fill="#FFF" d="M23.993 13s-7.5 6.079-7.5 12.5a7.5 7.5 0 0 0 15 0c0-6.377-7.5-12.5-7.5-12.5"/>
        <path fill="#68D0EC" d="M22.852 30.063a.532.532 0 0 1-.678.323 5.014 5.014 0 0 1-3.07-3.075.53.53 0 0 1 1-.352 4.01 4.01 0 0 0 2.425 2.428c.274.097.42.4.323.676"/>
    </g>
</svg>
