<svg xmlns="http://www.w3.org/2000/svg" width="48" height="48" viewBox="0 0 48 48">
    <g fill="none" fill-rule="evenodd">
        <path fill="#FF5C5E" d="M24 0c13.255 0 24 10.745 24 24S37.255 48 24 48 0 37.255 0 24 10.745 0 24 0"/>
        <path fill="#FFAA45" d="M39.286 29.25H8.713a1.996 1.996 0 0 1-1.935-1.52l2.424 11.435a2 2 0 0 0 1.956 1.585h25.683a2 2 0 0 0 1.957-1.585l2.424-11.435a1.998 1.998 0 0 1-1.936 1.52"/>
        <path fill="#EE4A4D" d="M9.752 32.982C9.89 31.887 10.9 31 11.992 31h24.017c1.1 0 2.101.882 2.239 1.982l1.004 8.036c.137 1.095-.646 1.982-1.75 1.982H10.498c-1.103 0-1.888-.882-1.75-1.982l1.004-8.036z"/>
        <path fill="#FFC373" d="M41.253 26.92l-.033-.155-4.228-19.93a2 2 0 0 0-1.956-1.585H12.964a2 2 0 0 0-1.955 1.584L6.78 26.765l-.033.154a2.007 2.007 0 0 0-.033.331c0 .115.015.226.034.335l.03.145c.216.871.997 1.52 1.936 1.52h8.369c.736 0 1.384.42 1.759 1.054a5.986 5.986 0 0 0 10.316 0c.375-.634 1.023-1.054 1.759-1.054h8.369c.939 0 1.72-.649 1.936-1.52l.031-.145c.018-.109.033-.22.033-.335 0-.113-.015-.223-.033-.33"/>
        <path fill="#E88900" d="M35.658 7.559a1 1 0 0 0-.981-.809H13.324a1 1 0 0 0-.982.809l-3.61 18.5a1 1 0 0 0 .982 1.191h8.292c1.004 0 1.913.602 2.297 1.53a4.003 4.003 0 0 0 7.394 0 2.485 2.485 0 0 1 2.298-1.53h8.29c.63 0 1.103-.575.983-1.192l-3.61-18.5z"/>
        <path fill="#F2EAE3" d="M33.353 17.785c.053-.486.52-.884 1.041-.884l.108-.902c-.527 0-.91-.41-.854-.92.056-.518.54-.942 1.077-.942l.115-.96a.864.864 0 0 1-.878-.983c.06-.55.56-1.003 1.116-1.003l.123-1.026c-.562 0-.967-.466-.904-1.048.064-.59.583-1.073 1.158-1.073l.132-1.097c-.582 0-.999-.499-.932-1.122.07-.63.608-1.149 1.204-1.149L36 3.5H12l.14 1.176c.596 0 1.135.518 1.204 1.15.068.622-.35 1.121-.93 1.121l.13 1.097c.575 0 1.094.483 1.158 1.073.064.582-.342 1.048-.904 1.048l.123 1.026c.556 0 1.056.452 1.116 1.003a.864.864 0 0 1-.878.982l.115.961c.538 0 1.021.424 1.077.941.056.511-.327.921-.854.921l.108.902c.522 0 .988.398 1.041.884.053.48-.32.866-.83.866l.1.85h20.167l.102-.85c-.512 0-.884-.386-.832-.866"/>
        <path fill="#EBE3DD" d="M31.95 17.785h-15.9l-1.108-11.96h18.115z"/>
        <path fill="#EADFD7" d="M12.54 8l.004.044c.576 0 1.094.483 1.16 1.073.013.136-.002.264-.035.383h20.662a1.028 1.028 0 0 1-.034-.383c.065-.59.583-1.073 1.16-1.073L35.46 8H12.54z"/>
        <path fill="#E3D9D1" d="M32.717 9.5l.14-1.5H15.143l.138 1.5z"/>
        <path fill="#FAF2EC" d="M34.912 23.806c.066-.481.55-.875 1.08-.875l.134-.895c-.536 0-.914-.407-.845-.915.07-.514.573-.936 1.12-.936l.145-.957c-.555 0-.944-.436-.87-.98.077-.551.599-1.003 1.166-1.003l.154-1.027c-.575 0-.976-.468-.895-1.052.08-.592.625-1.077 1.213-1.077l.165-1.105c-.595 0-1.01-.503-.922-1.132.087-.637.654-1.161 1.265-1.161L38 9.5H10l.178 1.19c.61 0 1.178.525 1.266 1.162.086.629-.327 1.132-.923 1.132l.165 1.105c.589 0 1.132.485 1.214 1.077.08.584-.321 1.052-.895 1.052l.154 1.027c.567 0 1.089.452 1.165 1.003.075.544-.315.98-.87.98l.144.957c.548 0 1.05.422 1.12.936.07.508-.307.915-.843.915l.134.895c.53 0 1.013.394 1.08.875.065.475-.303.856-.821.856l.125.838h23.214l.126-.838c-.52 0-.886-.381-.821-.856"/>
        <path fill="#F4EAE3" d="M11.005 16.218l.154 1.026c.257 0 .5.102.7.256h24.28c.203-.154.445-.256.703-.256l.154-1.026a.886.886 0 0 1-.574-.219H11.579a.886.886 0 0 1-.574.219"/>
        <path fill="#F2EAE3" d="M33.488 23.806H14.511l-1.43-11.954h21.837z"/>
        <path fill="#EDE3D9" d="M34.243 17.5l.179-1.5H13.578l.179 1.5z"/>
        <path fill="#FEF9F5" d="M36.345 31.727c.056-.5.53-.908 1.058-.908l.111-.923c-.533 0-.919-.418-.86-.939.058-.525.545-.954 1.087-.954l.116-.97a.867.867 0 0 1-.88-.987 1.156 1.156 0 0 1 1.12-1.004l.121-1.02c-.56 0-.964-.464-.9-1.04.065-.582.581-1.058 1.152-1.058l.13-1.077c-.577 0-.99-.488-.922-1.095.068-.614.6-1.116 1.186-1.116L39 17.5H9l.136 1.136c.586 0 1.118.502 1.186 1.116.068.607-.345 1.095-.92 1.095l.128 1.077c.571 0 1.087.476 1.151 1.057.065.577-.339 1.04-.899 1.04l.122 1.021c.556 0 1.057.452 1.12 1.004a.867.867 0 0 1-.88.987l.115.97c.542 0 1.03.43 1.088.954.057.521-.328.94-.86.94l.11.922c.528 0 1.002.408 1.058.908.055.495-.322.893-.843.893l.106.88h26.164l.106-.88c-.52 0-.898-.398-.843-.893"/>
        <path fill="#FAF2EC" d="M34.92 31.727H13.08L11.9 19.752h24.2z"/>
        <path fill="#E5D5C9" d="M34.112 24.534H21.978l-.018-1.03H34.2z"/>
        <path fill="#ECDED4" d="M33.94 26.542H22.012l-.017-.995h12.03z"/>
        <path fill="#F3E8E0" d="M33.774 28.483H22.045l-.016-.962h11.827z"/>
        <path fill="#DECBBD" d="M19.087 27.276c-.394-.408-1.088-.4-1.282-.586-.116-.11-.136-.184-.142-.295-.005-.104-.006-.115.108-.343.105-.21.483-.468.439-1.345-.043-.89-.592-1.725-1.381-1.725-.79 0-1.24.83-1.175 1.721.062.877.47 1.13.6 1.34.14.227.14.227.148.332.007.11-.005.163-.108.274-.171.186-.864.22-1.208.627-.245.288-.325 1.022-.351 1.417-.01.14.104.265.237.265h4.43c.133 0 .23-.125.206-.265-.074-.395-.242-1.129-.521-1.417"/>
        <path fill="#FFAA45" d="M39.35 29.25h-8.368c-.736 0-1.384.42-1.76 1.054a5.986 5.986 0 0 1-5.157 2.946 5.987 5.987 0 0 1-5.16-2.946c-.374-.634-1.022-1.054-1.758-1.054h-8.37a1.996 1.996 0 0 1-1.934-1.52l2.424 11.435a2 2 0 0 0 1.956 1.585h25.683a2 2 0 0 0 1.957-1.585l2.424-11.435a1.998 1.998 0 0 1-1.936 1.52"/>
        <path fill="#FFC373" d="M41.22 26.765L40.845 25h-1.784l.206 1.058a1 1 0 0 1-.98 1.192h-8.293a2.482 2.482 0 0 0-2.297 1.53 4.001 4.001 0 0 1-7.394 0 2.485 2.485 0 0 0-2.298-1.53h-8.29a1 1 0 0 1-.983-1.192L8.94 25H7.154l-.375 1.765-.032.154a2.007 2.007 0 0 0-.034.331c0 .115.016.226.034.335l.031.145c.216.871.997 1.52 1.935 1.52h8.37c.735 0 1.383.42 1.758 1.053a5.988 5.988 0 0 0 10.317 0c.375-.633 1.023-1.053 1.76-1.053h8.368c.938 0 1.72-.649 1.936-1.52l.03-.145a1.94 1.94 0 0 0 .034-.335c0-.113-.015-.223-.033-.33l-.033-.155z"/>
    </g>
</svg>
