<?xml version="1.0" standalone="no"?><!DOCTYPE svg PUBLIC "-//W3C//DTD SVG 1.1//EN" "http://www.w3.org/Graphics/SVG/1.1/DTD/svg11.dtd"><svg t="1555143453559" class="icon" style="" viewBox="0 0 1024 1024" version="1.1" xmlns="http://www.w3.org/2000/svg" p-id="6562" xmlns:xlink="http://www.w3.org/1999/xlink" width="200" height="200"><defs><style type="text/css"></style></defs><path d="M246.002367 1002.186982a239.943195 21.813018 0 1 0 479.88639 0 239.943195 21.813018 0 1 0-479.88639 0Z" fill="#DEF3F3" p-id="6563"></path><path d="M447.772781 391.422485v136.331361L158.750296 456.861538z" fill="#92DADB" p-id="6564"></path><path d="M442.319527 391.422485v125.424852c18.438059 20.03768 32.980071 29.126438 43.626035 27.266272 10.645964-1.860166 112.440047-41.850698 305.382249-119.971597L442.319527 391.422485z" fill="#CFF5F4" p-id="6565"></path><path d="M915.880142 260.544379l40.996355 14.923739-37.30026 102.484829L878.579882 363.035266z" fill="#B45AEF" p-id="6566"></path><path d="M87.857988 407.782249m-16.359763 0a16.359763 16.359763 0 1 0 32.719526 0 16.359763 16.359763 0 1 0-32.719526 0Z" fill="#FFDC6A" p-id="6567"></path><path d="M824.047337 151.47929m-10.906509 0a10.906509 10.906509 0 1 0 21.813018 0 10.906509 10.906509 0 1 0-21.813018 0Z" fill="#FF6392" p-id="6568"></path><path d="M409.6 31.507692m-10.906509 0a10.906509 10.906509 0 1 0 21.813018 0 10.906509 10.906509 0 1 0-21.813018 0Z" fill="#0ED0FA" p-id="6569"></path><path d="M70.286391 251.843408l25.424284-20.589065 89.227361 110.186036-25.424285 20.595124z" fill="#FF6392" p-id="6570"></path><path d="M562.132633 77.205141l212.146994 122.483124a6.059172 6.059172 0 0 1 2.217811 8.276982l-157.538461 272.86462a6.059172 6.059172 0 0 1-8.276983 2.21781L398.535 360.564553a6.059172 6.059172 0 0 1-2.217811-8.276982L553.855651 79.422951a6.059172 6.059172 0 0 1 8.276982-2.21781z" fill="#51C2FD" p-id="6571"></path><path d="M565.439333 106.099876l182.158123 105.169041-140.227409 242.880996L425.211924 348.980871z" fill="#ADE4FF" p-id="6572"></path><path d="M659.954568 363.070851l-52.584521 91.079062L425.211924 348.980871c30.514201-15.091389 54.18766-21.048775 63.848642-17.108192C521.514375 335.889199 600.420486 288.216918 626.893602 303.501178c20.254951 11.694201 29.765096 30.268395 33.066214 59.572703z" fill="#7AD2FF" p-id="6573"></path><path d="M597.433741 201.981449m-26.10055-15.069159a30.13832 30.13832 0 1 0 52.2011 30.138319 30.13832 30.13832 0 1 0-52.2011-30.138319Z" fill="#8AD7FF" p-id="6574"></path><path d="M454.42622 298.380227c31.737894-17.659266 56.392091-21.413233 73.97087-11.264121 30.256488 17.468592 25.578974 65.366923 51.747785 97.344124 12.903148 23.191826 33.664328 26.180762 62.283539 8.96681l-35.058367 60.722873L425.211924 348.980871 454.42622 298.380227z" fill="#8AD7FF" p-id="6575"></path><path d="M158.750296 456.861538l349.008284 43.626036v403.540828l-349.008284-87.252071z" fill="#82E5D1" p-id="6576"></path><path d="M158.750296 456.861538l349.008284 43.626036-76.345562 163.597633-338.101775-59.985799z" fill="#C4F7EE" p-id="6577"></path><path d="M791.327811 424.142012L507.75858 500.487574v403.540828l283.569231-109.065088z" fill="#ADF0E4" p-id="6578"></path><path d="M611.370414 664.085207l267.209468-103.611834L791.327811 424.142012 507.75858 500.487574z" fill="#E5FAFB" p-id="6579"></path><path d="M109.031973 13.839091a154.672473 45.807337 30 1 0 267.900582 154.672474 154.672473 45.807337 30 1 0-267.900582-154.672474Z" fill="#FFD594" p-id="6580"></path><path d="M182.477908 41.305533C205.437693 7.936504 250.144949-2.920557 285.302506 17.377668c35.152309 20.295195 48.106476 64.436097 30.690159 101.012646-24.742774-0.152259-51.467416-7.220886-76.497497-21.672011s-44.516231-34.069306-57.01726-55.41277z" fill="#FFC56D" p-id="6581"></path><path d="M193.220302 28.721977c-3.94353 3.740217-7.556967 7.950874-10.742394 12.583556 12.498 21.348711 31.981931 40.958617 57.01726 55.41277 25.030081 14.451124 51.757753 21.514504 76.497497 21.672011a79.314556 79.314556 0 0 0 5.435536-15.255666c-20.881156 3.532525-48.695621-2.339218-75.173984-17.626508-26.698754-15.414533-45.786272-36.789579-53.033915-56.786163z" fill="#FFB466" p-id="6582"></path></svg>