<svg xmlns="http://www.w3.org/2000/svg" xmlns:xlink="http://www.w3.org/1999/xlink" width="48" height="48" viewBox="0 0 48 48">
    <defs>
        <path id="a" d="M24 0c13.255 0 24 10.745 24 24S37.255 48 24 48 0 37.255 0 24 10.745 0 24 0"/>
        <filter id="b" width="102.1%" height="102.1%" x="-1%" y="-1%" filterUnits="objectBoundingBox">
            <feMorphology in="SourceAlpha" radius="1" result="shadowSpreadInner1"/>
            <feOffset in="shadowSpreadInner1" result="shadowOffsetInner1"/>
            <feComposite in="shadowOffsetInner1" in2="SourceAlpha" k2="-1" k3="1" operator="arithmetic" result="shadowInnerInner1"/>
            <feColorMatrix in="shadowInnerInner1" values="0 0 0 0 0 0 0 0 0 0 0 0 0 0 0 0 0 0 0.06 0"/>
        </filter>
    </defs>
    <g fill="none" fill-rule="evenodd">
        <use fill="#FF5C5E" xlink:href="#a"/>
        <use fill="#000" filter="url(#b)" xlink:href="#a"/>
        <path fill="#FFA624" d="M7 20v17l17 11V29z"/>
        <path fill="#F99900" d="M41 20v17L24 48V29z"/>
        <path fill="#E57700" d="M7 20l17-9 17 9-17 9z"/>
        <g fill="#F99900">
            <path d="M41 20l-17-9 7-6 16 8zM7 20l17-9-7-6-16 8z"/>
        </g>
        <g transform="translate(8)">
            <circle cx="8" cy="8" r="8" fill="#FFF"/>
            <path fill="#FF585B" d="M7.938 3.954h7.073C13.669 1.417 11.069 0 8 0a7.98 7.98 0 0 0-6.078 2.806l2.47 4.28c.41-1.618 1.8-3.132 3.546-3.132"/>
            <path fill="#459FFF" d="M5.505 8a2.5 2.5 0 1 0 5 0 2.5 2.5 0 0 0-5 0"/>
            <path fill="#FFBE57" d="M15.473 5.021h-4.928c.693.678 1.188 1.933 1.188 2.98 0 .68-.195 1.308-.513 1.858l.013.007-3.532 6.12c.1.002.198.014.299.014a8 8 0 0 0 8-8c0-.937-.232-2.144-.527-2.979"/>
            <path fill="#27C376" d="M8 11.733A3.716 3.716 0 0 1 4.78 9.86l-.013.007-3.533-6.12A7.943 7.943 0 0 0 0 8c0 3.92 2.82 7.174 6.54 7.861l2.475-4.285A3.705 3.705 0 0 1 8 11.733"/>
        </g>
        <path fill="#EBEDEB" d="M38.822 8.569c-1.082-.212-2.541.146-3.526.86-.881.634-1.79 1.762-1.921 3.022 1.174.378 2.563-.03 3.523-.751.96-.723 1.762-1.852 1.924-3.131"/>
        <path fill="#94D60A" d="M11.932 32.237l15.346-3.41-2.206-9.882-15.346 3.409zM24.38 17.597c-.717-3.213-1.981-5.872-4.905-6.826l.385-2.655a.673.673 0 0 0-.975-.777.666.666 0 0 0-.322.402l-.557 2.684a8.974 8.974 0 0 0-3.275.111 8.96 8.96 0 0 0-3 1.277l-1.725-2.17a.657.657 0 0 0-.463-.228.663.663 0 0 0-.489.166.676.676 0 0 0-.064.95l1.52 2.249c-2.225 2.102-2.228 5.034-1.514 8.235L9 21.014l-.001.013 15.354-3.412-.005-.011.032-.007z"/>
        <path fill="#FFF" d="M12.902 17.846a1.124 1.124 0 0 1-.489-2.193 1.123 1.123 0 1 1 .489 2.193M19.495 16.381a1.124 1.124 0 0 1-.489-2.193 1.123 1.123 0 1 1 .489 2.193"/>
        <path fill="#EBEDEB" d="M37.687 20.245c.618-2.7 3.157-3.46 3.272-3.5-.814-2.127-2.705-2.843-3.393-3.038-1.62-.564-3.473.202-4.315 0-.84-.2-1.912-1.46-3.295-1.764-1.816-.405-3.729.22-5.049 1.614-2.66 2.806-2.417 7.96-1.219 11.038.586 1.505 1.306 3.212 2.72 3.494 1.363.269 2.07-.427 3.701-.038 1.632.39 1.882 1.37 3.317 1.685 1.46.32 2.688-.75 3.888-1.834 1.388-1.254 2.16-2.604 2.202-2.672-.029-.022-2.573-1.761-1.829-4.985"/>
        <path fill="#D3D3D3" d="M37.687 20.245c.053-.233.137-.432.216-.637L24.351 26.12c.49.966 1.12 1.782 2.057 1.969 1.363.269 2.07-.427 3.701-.038 1.632.39 1.882 1.37 3.317 1.685 1.46.32 2.688-.751 3.888-1.834 1.388-1.254 2.16-2.604 2.202-2.672-.029-.022-2.573-1.761-1.829-4.985"/>
        <path fill="#F99900" d="M24 29h2v2h-2z"/>
        <path fill="#FFA624" d="M22 29h2v2h-2z"/>
        <path fill="#FFB652" d="M7 20l17 9-7 8L1 27zM41 20l-17 9 7 8 16-10z"/>
    </g>
</svg>
