<svg xmlns="http://www.w3.org/2000/svg" width="48" height="48" viewBox="0 0 48 48">
    <g fill="none" fill-rule="evenodd">
        <path fill="#E6E7EB" d="M48 24c0 13.254-10.745 24-24 24S0 37.254 0 24C0 10.745 10.745 0 24 0s24 10.745 24 24"/>
        <path fill="#F99900" d="M38.981 23.896c0 5.027-4.537 11.595-9.528 14.678l-.009.09 4.713-.478 1.455-.147 2.03-.205-.849-.83-.566-.553a16.996 16.996 0 0 0 4.871-9.111c.983-5.356-.638-11.08-4.87-15.218-4.232-4.14-10.083-5.724-15.56-4.763a15.34 15.34 0 0 1 3.041.19c8.56.751 15.272 7.778 15.272 16.347"/>
        <path fill="#FFB12F" d="M31.705 32.028l-1.413-1.383-.296 2.797-.543 5.132c5.363-2.59 10.187-8.156 9.462-16.134C38.123 13.723 32.27 8.3 23.709 7.55a14.785 14.785 0 0 1 7.996 4.02c.88.86 1.608 1.809 2.22 2.806a14.222 14.222 0 0 1-2.22 17.653z"/>
        <path fill="#E95B5C" d="M30.634 32.888h5.57V13.73h-5.57zM38.59 13.73H28.248l5.172-6.256z"/>
        <path fill="#FFC951" d="M11.537 28.197v4.691h6.366v-5.603a22.64 22.64 0 0 1-6.366.912"/>
        <path fill="#FFB12F" d="M17.903 27.285v5.603h6.365v-8.622a22.371 22.371 0 0 1-6.365 3.019"/>
        <path fill="#F99900" d="M24.268 24.265v8.623h6.366V17.582a22.17 22.17 0 0 1-6.366 6.683"/>
        <path fill="#FFC373" d="M8.76 24.678c0-5.027 4.538-11.597 9.528-14.678l.01-.09-4.714.477-1.454.147-2.03.205.848.83.566.553a16.998 16.998 0 0 0-4.87 9.112c-.983 5.355.638 11.078 4.87 15.218 4.232 4.14 10.082 5.724 15.559 4.762a15.277 15.277 0 0 1-3.041-.19c-8.56-.751-15.272-7.778-15.272-16.346"/>
        <path fill="#FFAA45" d="M13.817 34.198a14.221 14.221 0 0 1 2.219-17.652l1.413 1.382.296-2.797L18.29 10c-4.992 3.082-9.529 9.652-9.529 14.679 0 8.568 6.712 15.595 15.272 16.346a14.787 14.787 0 0 1-7.996-4.02 14.478 14.478 0 0 1-2.219-2.806"/>
        <path fill="#FF5C5E" d="M33.419 7.475l-5.172 6.255h2.387v19.158h5.57V13.73h2.387z"/>
    </g>
</svg>
