<svg xmlns="http://www.w3.org/2000/svg" width="48" height="48" viewBox="0 0 48 48">
    <g fill="none" fill-rule="evenodd">
        <path fill="#00CE7D" d="M41.547 7.626C37.166 2.933 30.926 0 24 0 10.745 0 0 10.745 0 24s10.745 24 24 24 24-10.745 24-24c0-4.881-1.457-9.422-3.96-13.211L22.414 32.414 21 33.828l-1.414-1.414-10-10 2.828-2.828L21 28.182 41.547 7.626z"/>
        <path fill="#29D692" d="M0 24C0 10.745 10.745 0 24 0v48C10.745 48 0 37.255 0 24z"/>
        <path fill="#FFF" d="M41.547 7.626c.915.98 1.75 2.039 2.493 3.163L22.414 32.414 21 33.828l-1.414-1.414-10-10 2.828-2.828L21 28.182 41.547 7.626z"/>
    </g>
</svg>
